<svg width="500" height="275" viewBox="0 0 500 275" fill="none" xmlns="http://www.w3.org/2000/svg">
<rect width="500" height="275" fill="#4F59AD"/>
<path d="M165.516 177.012H171.736C174.571 177.012 176.626 177.417 177.902 178.229C179.188 179.031 179.83 180.311 179.83 182.07C179.83 183.264 179.548 184.244 178.982 185.01C178.426 185.775 177.684 186.236 176.754 186.391V186.527C178.021 186.81 178.932 187.339 179.488 188.113C180.053 188.888 180.336 189.918 180.336 191.203C180.336 193.026 179.675 194.448 178.354 195.469C177.041 196.49 175.255 197 172.994 197H165.516V177.012ZM169.754 184.928H172.215C173.363 184.928 174.193 184.75 174.703 184.395C175.223 184.039 175.482 183.451 175.482 182.631C175.482 181.865 175.2 181.318 174.635 180.99C174.079 180.653 173.195 180.484 171.982 180.484H169.754V184.928ZM169.754 188.291V193.5H172.516C173.682 193.5 174.544 193.277 175.1 192.83C175.656 192.383 175.934 191.7 175.934 190.779C175.934 189.12 174.749 188.291 172.379 188.291H169.754ZM193.707 197L192.9 194.922H192.791C192.089 195.806 191.365 196.421 190.617 196.768C189.879 197.105 188.913 197.273 187.719 197.273C186.251 197.273 185.094 196.854 184.246 196.016C183.408 195.177 182.988 193.983 182.988 192.434C182.988 190.811 183.553 189.617 184.684 188.852C185.823 188.077 187.536 187.648 189.824 187.566L192.477 187.484V186.814C192.477 185.265 191.684 184.49 190.098 184.49C188.876 184.49 187.441 184.859 185.791 185.598L184.41 182.781C186.169 181.861 188.12 181.4 190.262 181.4C192.312 181.4 193.885 181.847 194.979 182.74C196.072 183.633 196.619 184.992 196.619 186.814V197H193.707ZM192.477 189.918L190.863 189.973C189.651 190.009 188.749 190.228 188.156 190.629C187.564 191.03 187.268 191.641 187.268 192.461C187.268 193.637 187.942 194.225 189.291 194.225C190.257 194.225 191.027 193.947 191.602 193.391C192.185 192.835 192.477 192.096 192.477 191.176V189.918ZM215.035 197H210.865V188.072C210.865 186.969 210.669 186.145 210.277 185.598C209.885 185.042 209.261 184.764 208.404 184.764C207.238 184.764 206.395 185.156 205.875 185.939C205.355 186.714 205.096 188.004 205.096 189.809V197H200.926V181.715H204.111L204.672 183.67H204.904C205.369 182.932 206.007 182.376 206.818 182.002C207.639 181.619 208.568 181.428 209.607 181.428C211.385 181.428 212.734 181.911 213.654 182.877C214.575 183.834 215.035 185.219 215.035 187.033V197ZM223.334 188.688L225.152 186.363L229.432 181.715H234.135L228.064 188.346L234.504 197H229.691L225.289 190.807L223.498 192.242V197H219.328V175.727H223.498V185.215L223.279 188.688H223.334ZM248.531 185.885H249.898C251.238 185.885 252.227 185.661 252.865 185.215C253.503 184.768 253.822 184.066 253.822 183.109C253.822 182.161 253.494 181.487 252.838 181.086C252.191 180.685 251.184 180.484 249.816 180.484H248.531V185.885ZM248.531 189.33V197H244.293V177.012H250.117C252.833 177.012 254.843 177.508 256.146 178.502C257.45 179.486 258.102 180.986 258.102 183C258.102 184.176 257.778 185.224 257.131 186.145C256.484 187.056 255.568 187.771 254.383 188.291C257.391 192.785 259.35 195.688 260.262 197H255.559L250.787 189.33H248.531ZM268.779 184.395C267.895 184.395 267.202 184.677 266.701 185.242C266.2 185.798 265.913 186.591 265.84 187.621H271.691C271.673 186.591 271.404 185.798 270.885 185.242C270.365 184.677 269.663 184.395 268.779 184.395ZM269.367 197.273C266.906 197.273 264.983 196.594 263.598 195.236C262.212 193.878 261.52 191.955 261.52 189.467C261.52 186.906 262.158 184.928 263.434 183.533C264.719 182.13 266.492 181.428 268.752 181.428C270.912 181.428 272.594 182.043 273.797 183.273C275 184.504 275.602 186.204 275.602 188.373V190.396H265.744C265.79 191.581 266.141 192.507 266.797 193.172C267.453 193.837 268.374 194.17 269.559 194.17C270.479 194.17 271.35 194.074 272.17 193.883C272.99 193.691 273.847 193.386 274.74 192.967V196.193C274.011 196.558 273.232 196.827 272.402 197C271.573 197.182 270.561 197.273 269.367 197.273ZM287.387 197.273C285.591 197.273 284.183 196.622 283.162 195.318H282.943C283.089 196.594 283.162 197.333 283.162 197.533V203.727H278.992V181.715H282.383L282.971 183.697H283.162C284.137 182.184 285.582 181.428 287.496 181.428C289.301 181.428 290.714 182.125 291.734 183.52C292.755 184.914 293.266 186.851 293.266 189.33C293.266 190.962 293.024 192.379 292.541 193.582C292.067 194.785 291.388 195.701 290.504 196.33C289.62 196.959 288.581 197.273 287.387 197.273ZM286.156 184.764C285.126 184.764 284.374 185.083 283.9 185.721C283.426 186.35 283.18 187.393 283.162 188.852V189.303C283.162 190.943 283.404 192.119 283.887 192.83C284.379 193.541 285.154 193.896 286.211 193.896C288.079 193.896 289.014 192.356 289.014 189.275C289.014 187.771 288.781 186.646 288.316 185.898C287.861 185.142 287.141 184.764 286.156 184.764ZM300.033 189.33C300.033 190.843 300.279 191.987 300.771 192.762C301.273 193.536 302.084 193.924 303.205 193.924C304.317 193.924 305.115 193.541 305.598 192.775C306.09 192.001 306.336 190.852 306.336 189.33C306.336 187.817 306.09 186.682 305.598 185.926C305.105 185.169 304.299 184.791 303.178 184.791C302.066 184.791 301.264 185.169 300.771 185.926C300.279 186.673 300.033 187.808 300.033 189.33ZM310.602 189.33C310.602 191.818 309.945 193.764 308.633 195.168C307.32 196.572 305.493 197.273 303.15 197.273C301.683 197.273 300.389 196.954 299.268 196.316C298.146 195.669 297.285 194.744 296.684 193.541C296.082 192.338 295.781 190.934 295.781 189.33C295.781 186.833 296.433 184.891 297.736 183.506C299.04 182.12 300.872 181.428 303.232 181.428C304.7 181.428 305.994 181.747 307.115 182.385C308.236 183.023 309.098 183.939 309.699 185.133C310.301 186.327 310.602 187.726 310.602 189.33ZM322.578 181.428C323.143 181.428 323.613 181.469 323.986 181.551L323.672 185.461C323.335 185.37 322.924 185.324 322.441 185.324C321.111 185.324 320.072 185.666 319.324 186.35C318.586 187.033 318.217 187.99 318.217 189.221V197H314.047V181.715H317.205L317.82 184.285H318.025C318.499 183.428 319.137 182.74 319.939 182.221C320.751 181.692 321.63 181.428 322.578 181.428ZM333.201 193.951C333.93 193.951 334.805 193.792 335.826 193.473V196.576C334.787 197.041 333.511 197.273 331.998 197.273C330.33 197.273 329.113 196.854 328.348 196.016C327.591 195.168 327.213 193.901 327.213 192.215V184.846H325.217V183.082L327.514 181.688L328.717 178.461H331.383V181.715H335.662V184.846H331.383V192.215C331.383 192.807 331.547 193.245 331.875 193.527C332.212 193.81 332.654 193.951 333.201 193.951Z" fill="white"/>
<path d="M291.333 124.667V44.6667C291.333 43.6667 290.667 43 289.667 43H214.667C213.667 43 213 43.6667 213 44.6667V68H216.333V46.3333H288V123H273C272 123 271.333 123.667 271.333 124.667V139.667H216.333V114.667H213V141.333C213 142.333 213.667 143 214.667 143H273C273.5 143 273.833 142.833 274.167 142.5L290.833 125.833C291 125.667 291 125.5 291.167 125.333V125.167C291.333 125 291.333 124.833 291.333 124.667ZM274.667 126.333H285.667L280.167 131.833L274.667 137.333V126.333Z" fill="white"/>
<path d="M224.667 106.333H234.667H241.333V103H236.333V71.3334C236.333 70.3334 235.667 69.6667 234.667 69.6667H224.667C223.667 69.6667 223 70.3334 223 71.3334V81.3334H214.667C213.667 81.3334 213 82 213 83V89.6667H204.667C203.667 89.6667 203 90.3334 203 91.3334V104.667C203 105.667 203.667 106.333 204.667 106.333H214.667H224.667ZM226.333 73H233V103H226.333V83V73ZM216.333 84.6667H223V103H216.333V91.3334V84.6667ZM206.333 93H213V103H206.333V93Z" fill="white"/>
<path d="M281.333 83V54.6667C281.333 53.6667 280.667 53 279.667 53H244.667C243.667 53 243 53.6667 243 54.6667V83C243 84 243.667 84.6667 244.667 84.6667H279.667C280.667 84.6667 281.333 84 281.333 83ZM278 63H258V56.3333H278V63ZM254.667 56.3333V63H246.333C246.333 60.3333 246.333 56.3333 246.333 56.3333H254.667ZM246.333 66.3333H254.667V81.3333H246.333C246.333 81.3333 246.333 73.5 246.333 66.3333ZM258 81.3333V66.3333H278V81.3333H258Z" fill="white"/>
<path d="M279.667 89.6667H244.667V93H279.667V89.6667Z" fill="white"/>
<path d="M279.667 98H244.667V101.333H279.667V98Z" fill="white"/>
<path d="M279.667 106.333H244.667V109.667H279.667V106.333Z" fill="white"/>
<path d="M231.333 53H221.333V56.3333H231.333V53Z" fill="white"/>
<path d="M236.333 61.3334H221.333V64.6667H236.333V61.3334Z" fill="white"/>
<path d="M233 114.667H221.333V118H233V114.667Z" fill="white"/>
<path d="M249.667 114.667H238V118H249.667V114.667Z" fill="white"/>
<path d="M266.333 114.667H254.667V118H266.333V114.667Z" fill="white"/>
<path d="M233 123H221.333V126.333H233V123Z" fill="white"/>
<path d="M249.667 123H238V126.333H249.667V123Z" fill="white"/>
<path d="M266.333 123H254.667V126.333H266.333V123Z" fill="white"/>
<path d="M233 131.333H221.333V134.667H233V131.333Z" fill="white"/>
<path d="M249.667 131.333H238V134.667H249.667V131.333Z" fill="white"/>
<path d="M266.333 131.333H254.667V134.667H266.333V131.333Z" fill="white"/>
</svg>
