<svg width="1000" height="275" viewBox="0 0 1000 275" fill="none" xmlns="http://www.w3.org/2000/svg">
<rect width="1000" height="275" fill="#4F59AD"/>
<path d="M412.516 195.012H418.736C421.571 195.012 423.626 195.417 424.902 196.229C426.188 197.031 426.83 198.311 426.83 200.07C426.83 201.264 426.548 202.244 425.982 203.01C425.426 203.775 424.684 204.236 423.754 204.391V204.527C425.021 204.81 425.932 205.339 426.488 206.113C427.053 206.888 427.336 207.918 427.336 209.203C427.336 211.026 426.675 212.448 425.354 213.469C424.041 214.49 422.255 215 419.994 215H412.516V195.012ZM416.754 202.928H419.215C420.363 202.928 421.193 202.75 421.703 202.395C422.223 202.039 422.482 201.451 422.482 200.631C422.482 199.865 422.2 199.318 421.635 198.99C421.079 198.653 420.195 198.484 418.982 198.484H416.754V202.928ZM416.754 206.291V211.5H419.516C420.682 211.5 421.544 211.277 422.1 210.83C422.656 210.383 422.934 209.7 422.934 208.779C422.934 207.12 421.749 206.291 419.379 206.291H416.754ZM440.707 215L439.9 212.922H439.791C439.089 213.806 438.365 214.421 437.617 214.768C436.879 215.105 435.913 215.273 434.719 215.273C433.251 215.273 432.094 214.854 431.246 214.016C430.408 213.177 429.988 211.983 429.988 210.434C429.988 208.811 430.553 207.617 431.684 206.852C432.823 206.077 434.536 205.648 436.824 205.566L439.477 205.484V204.814C439.477 203.265 438.684 202.49 437.098 202.49C435.876 202.49 434.441 202.859 432.791 203.598L431.41 200.781C433.169 199.861 435.12 199.4 437.262 199.4C439.312 199.4 440.885 199.847 441.979 200.74C443.072 201.633 443.619 202.992 443.619 204.814V215H440.707ZM439.477 207.918L437.863 207.973C436.651 208.009 435.749 208.228 435.156 208.629C434.564 209.03 434.268 209.641 434.268 210.461C434.268 211.637 434.942 212.225 436.291 212.225C437.257 212.225 438.027 211.947 438.602 211.391C439.185 210.835 439.477 210.096 439.477 209.176V207.918ZM462.035 215H457.865V206.072C457.865 204.969 457.669 204.145 457.277 203.598C456.885 203.042 456.261 202.764 455.404 202.764C454.238 202.764 453.395 203.156 452.875 203.939C452.355 204.714 452.096 206.004 452.096 207.809V215H447.926V199.715H451.111L451.672 201.67H451.904C452.369 200.932 453.007 200.376 453.818 200.002C454.639 199.619 455.568 199.428 456.607 199.428C458.385 199.428 459.734 199.911 460.654 200.877C461.575 201.834 462.035 203.219 462.035 205.033V215ZM470.334 206.688L472.152 204.363L476.432 199.715H481.135L475.064 206.346L481.504 215H476.691L472.289 208.807L470.498 210.242V215H466.328V193.727H470.498V203.215L470.279 206.688H470.334ZM495.531 203.885H496.898C498.238 203.885 499.227 203.661 499.865 203.215C500.503 202.768 500.822 202.066 500.822 201.109C500.822 200.161 500.494 199.487 499.838 199.086C499.191 198.685 498.184 198.484 496.816 198.484H495.531V203.885ZM495.531 207.33V215H491.293V195.012H497.117C499.833 195.012 501.843 195.508 503.146 196.502C504.45 197.486 505.102 198.986 505.102 201C505.102 202.176 504.778 203.224 504.131 204.145C503.484 205.056 502.568 205.771 501.383 206.291C504.391 210.785 506.35 213.688 507.262 215H502.559L497.787 207.33H495.531ZM515.779 202.395C514.895 202.395 514.202 202.677 513.701 203.242C513.2 203.798 512.913 204.591 512.84 205.621H518.691C518.673 204.591 518.404 203.798 517.885 203.242C517.365 202.677 516.663 202.395 515.779 202.395ZM516.367 215.273C513.906 215.273 511.983 214.594 510.598 213.236C509.212 211.878 508.52 209.955 508.52 207.467C508.52 204.906 509.158 202.928 510.434 201.533C511.719 200.13 513.492 199.428 515.752 199.428C517.912 199.428 519.594 200.043 520.797 201.273C522 202.504 522.602 204.204 522.602 206.373V208.396H512.744C512.79 209.581 513.141 210.507 513.797 211.172C514.453 211.837 515.374 212.17 516.559 212.17C517.479 212.17 518.35 212.074 519.17 211.883C519.99 211.691 520.847 211.386 521.74 210.967V214.193C521.011 214.558 520.232 214.827 519.402 215C518.573 215.182 517.561 215.273 516.367 215.273ZM534.387 215.273C532.591 215.273 531.183 214.622 530.162 213.318H529.943C530.089 214.594 530.162 215.333 530.162 215.533V221.727H525.992V199.715H529.383L529.971 201.697H530.162C531.137 200.184 532.582 199.428 534.496 199.428C536.301 199.428 537.714 200.125 538.734 201.52C539.755 202.914 540.266 204.851 540.266 207.33C540.266 208.962 540.024 210.379 539.541 211.582C539.067 212.785 538.388 213.701 537.504 214.33C536.62 214.959 535.581 215.273 534.387 215.273ZM533.156 202.764C532.126 202.764 531.374 203.083 530.9 203.721C530.426 204.35 530.18 205.393 530.162 206.852V207.303C530.162 208.943 530.404 210.119 530.887 210.83C531.379 211.541 532.154 211.896 533.211 211.896C535.079 211.896 536.014 210.356 536.014 207.275C536.014 205.771 535.781 204.646 535.316 203.898C534.861 203.142 534.141 202.764 533.156 202.764ZM547.033 207.33C547.033 208.843 547.279 209.987 547.771 210.762C548.273 211.536 549.084 211.924 550.205 211.924C551.317 211.924 552.115 211.541 552.598 210.775C553.09 210.001 553.336 208.852 553.336 207.33C553.336 205.817 553.09 204.682 552.598 203.926C552.105 203.169 551.299 202.791 550.178 202.791C549.066 202.791 548.264 203.169 547.771 203.926C547.279 204.673 547.033 205.808 547.033 207.33ZM557.602 207.33C557.602 209.818 556.945 211.764 555.633 213.168C554.32 214.572 552.493 215.273 550.15 215.273C548.683 215.273 547.389 214.954 546.268 214.316C545.146 213.669 544.285 212.744 543.684 211.541C543.082 210.338 542.781 208.934 542.781 207.33C542.781 204.833 543.433 202.891 544.736 201.506C546.04 200.12 547.872 199.428 550.232 199.428C551.7 199.428 552.994 199.747 554.115 200.385C555.236 201.023 556.098 201.939 556.699 203.133C557.301 204.327 557.602 205.726 557.602 207.33ZM569.578 199.428C570.143 199.428 570.613 199.469 570.986 199.551L570.672 203.461C570.335 203.37 569.924 203.324 569.441 203.324C568.111 203.324 567.072 203.666 566.324 204.35C565.586 205.033 565.217 205.99 565.217 207.221V215H561.047V199.715H564.205L564.82 202.285H565.025C565.499 201.428 566.137 200.74 566.939 200.221C567.751 199.692 568.63 199.428 569.578 199.428ZM580.201 211.951C580.93 211.951 581.805 211.792 582.826 211.473V214.576C581.787 215.041 580.511 215.273 578.998 215.273C577.33 215.273 576.113 214.854 575.348 214.016C574.591 213.168 574.213 211.901 574.213 210.215V202.846H572.217V201.082L574.514 199.688L575.717 196.461H578.383V199.715H582.662V202.846H578.383V210.215C578.383 210.807 578.547 211.245 578.875 211.527C579.212 211.81 579.654 211.951 580.201 211.951Z" fill="white"/>
<path d="M541.334 137.667V57.6667C541.334 56.6667 540.667 56 539.667 56H464.667C463.667 56 463 56.6667 463 57.6667V81H466.334V59.3333H538V136H523C522 136 521.334 136.667 521.334 137.667V152.667H466.334V127.667H463V154.333C463 155.333 463.667 156 464.667 156H523C523.5 156 523.834 155.833 524.167 155.5L540.834 138.833C541 138.667 541 138.5 541.167 138.333V138.167C541.334 138 541.334 137.833 541.334 137.667ZM524.667 139.333H535.667L530.167 144.833L524.667 150.333V139.333Z" fill="white"/>
<path d="M474.667 119.333H484.667H491.334V116H486.334V84.3334C486.334 83.3334 485.667 82.6667 484.667 82.6667H474.667C473.667 82.6667 473 83.3334 473 84.3334V94.3334H464.667C463.667 94.3334 463 95 463 96V102.667H454.667C453.667 102.667 453 103.333 453 104.333V117.667C453 118.667 453.667 119.333 454.667 119.333H464.667H474.667ZM476.334 86H483V116H476.334V96V86ZM466.334 97.6667H473V116H466.334V104.333V97.6667ZM456.334 106H463V116H456.334V106Z" fill="white"/>
<path d="M531.334 96V67.6667C531.334 66.6667 530.667 66 529.667 66H494.667C493.667 66 493 66.6667 493 67.6667V96C493 97 493.667 97.6667 494.667 97.6667H529.667C530.667 97.6667 531.334 97 531.334 96ZM528 76H508V69.3333H528V76ZM504.667 69.3333V76H496.334C496.334 73.3333 496.334 69.3333 496.334 69.3333H504.667ZM496.334 79.3333H504.667V94.3333H496.334C496.334 94.3333 496.334 86.5 496.334 79.3333ZM508 94.3333V79.3333H528V94.3333H508Z" fill="white"/>
<path d="M529.667 102.667H494.667V106H529.667V102.667Z" fill="white"/>
<path d="M529.667 111H494.667V114.333H529.667V111Z" fill="white"/>
<path d="M529.667 119.333H494.667V122.667H529.667V119.333Z" fill="white"/>
<path d="M481.334 66H471.334V69.3333H481.334V66Z" fill="white"/>
<path d="M486.334 74.3334H471.334V77.6667H486.334V74.3334Z" fill="white"/>
<path d="M483 127.667H471.334V131H483V127.667Z" fill="white"/>
<path d="M499.667 127.667H488V131H499.667V127.667Z" fill="white"/>
<path d="M516.333 127.667H504.667V131H516.333V127.667Z" fill="white"/>
<path d="M483 136H471.334V139.333H483V136Z" fill="white"/>
<path d="M499.667 136H488V139.333H499.667V136Z" fill="white"/>
<path d="M516.333 136H504.667V139.333H516.333V136Z" fill="white"/>
<path d="M483 144.333H471.334V147.667H483V144.333Z" fill="white"/>
<path d="M499.667 144.333H488V147.667H499.667V144.333Z" fill="white"/>
<path d="M516.333 144.333H504.667V147.667H516.333V144.333Z" fill="white"/>
</svg>
